:SAMPLES-PER-SECOND 30
:FULLY-SPECIFIED
:DEGREES
56
root  72.3575 38.0444 -3.719 -126.876 -81.0744 122.89
RightUpLeg  -6.31118 4.23042 -11.1637
RightLeg  59.2583 5.06281 8.68802
RightFoot  -1.39302 -1.30958 14.9495
RightToes  9.54606e-009 0 -3.6325e-017
Spine  3.06146 2.53364 -4.85991
Spine1  11.2255 3.78124 -7.64953
HEad  -10.8597 0.7435 -3.75039
LeftShoulder1  -0.386429 4.48667 -33.1717
LeftArm  4.44098 5.72839 -40.1587
LeftForeArm  30.5234 -14.4631 -7.59549
LeftHand  -0.183725 10.5967 -2.60314
RightShoulder  -1.00583 -6.21046 30.5982
RightArm  23.5634 0.0488597 47.9237
RightForeArm  12.4164 15.6614 6.43802
RightHand  -0.0400291 1.16608 -0.821527
LeftUpLeg  -9.51127 2.71651 -11.5117
LeftLeg  17.5421 9.22436 0.941645
LeftFoot  -6.65022 -0.229216 6.55485
LeftToes  -8.26734e-010 9.74065e-011 1.64617e-011
57
root  71.5876 38.1414 -3.6636 -126.616 -81.8206 122.657
RightUpLeg  -10.3611 5.38338 -10.4942
RightLeg  60.7839 3.4893 6.27594
RightFoot  -0.540785 -1.08211 11.3341
RightToes  9.54606e-009 0 -3.6325e-017
Spine  3.18117 2.02921 -5.44233
Spine1  10.8599 2.97526 -6.59019
HEad  -9.9318 1.00436 -2.66605
LeftShoulder1  -0.412847 4.55951 -32.9899
LeftArm  2.00083 2.81304 -41.3861
LeftForeArm  34.1857 -12.432 -8.37079
LeftHand  -0.0979251 8.74035 -1.73006
RightShoulder  -0.997328 -6.19389 30.5084
RightArm  22.9615 0.108169 47.5627
RightForeArm  10.5866 16.8161 5.85677
RightHand  -0.0480149 1.64036 -0.941585
LeftUpLeg  -8.03944 2.90311 -11.0738
LeftLeg  17.3054 8.57245 0.790499
LeftFoot  -7.79445 -0.149272 6.34666
LeftToes  -8.26734e-010 9.74065e-011 1.64617e-011
58
root  70.7994 38.2359 -3.59889 -127.43 -82.5635 123.152
RightUpLeg  -13.436 6.91023 -9.74809
RightLeg  59.57 2.6096 4.34201
RightFoot  -1.54938 -0.865382 9.95578
RightToes  9.54606e-009 0 -3.6325e-017
Spine  4.97948 1.6429 -5.52516
Spine1  8.42178 2.2817 -6.08063
HEad  -8.97358 1.12219 -1.8672
LeftShoulder1  -0.549938 4.92439 -32.5017
LeftArm  2.05014 1.06709 -42.5988
LeftForeArm  35.4835 -12.3625 -8.39444
LeftHand  -0.139671 8.43747 -3.27502
RightShoulder  -1.04796 -6.29578 30.9849
RightArm  23.1878 -0.214807 46.4258
RightForeArm  9.17586 17.5976 5.57957
RightHand  -0.0534267 1.77378 -1.02376
LeftUpLeg  -6.0594 3.30454 -10.5288
LeftLeg  16.8156 7.93333 0.554938
LeftFoot  -8.84868 -0.0893446 6.54483
LeftToes  -8.26734e-010 9.74065e-011 1.64617e-011
59
root  70.0088 38.3091 -3.55336 -129.717 -83.025 125.343
RightUpLeg  -16.2647 8.71176 -9.14977
RightLeg  56.0104 2.38108 3.38638
RightFoot  -2.7815 -0.710909 9.23019
RightToes  9.54606e-009 0 -3.6325e-017
Spine  4.29036 1.38255 -5.96207
Spine1  9.65729 1.89848 -5.06572
HEad  -9.59817 3.2682 -0.615644
LeftShoulder1  -0.435126 4.64707 -31.8676
LeftArm  1.53654 -0.78037 -44.4569
LeftForeArm  34.9879 -13.1728 -7.77588
LeftHand  -0.197672 9.39532 -4.04739
RightShoulder  -1.03445 -6.27537 30.7154
RightArm  22.9128 0.459136 46.6682
RightForeArm  9.12215 18.3843 5.24671
RightHand  -0.0541856 1.49642 -1.03397
LeftUpLeg  -4.25423 3.76126 -10.0133
LeftLeg  16.1653 7.56393 0.339007
LeftFoot  -9.83269 -0.0276995 6.59194
LeftToes  -8.26734e-010 9.74065e-011 1.64617e-011
60
root  69.1868 38.3592 -3.47949 -131.287 -83.4729 126.765
RightUpLeg  -18.2412 10.0022 -8.7904
RightLeg  50.1213 2.7287 3.14795
RightFoot  -3.27994 -0.612248 8.35687
RightToes  9.54606e-009 0 -3.6325e-017
Spine  4.79117 0.990373 -6.77354
Spine1  9.03604 1.0399 -3.19615
HEad  -9.57189 2.08532 -0.724966
LeftShoulder1  -0.577593 4.985 -32.9049
LeftArm  6.09266 -1.51649 -44.494
LeftForeArm  29.3757 -16.332 -6.66265
LeftHand  -0.158998 9.40578 -2.94324
RightShoulder  -0.810002 -5.76245 29.2832
RightArm  23.2398 0.215796 47.3324
RightForeArm  8.6439 18.9308 5.11634
RightHand  -0.121507 1.94834 -2.10343
LeftUpLeg  -2.28886 4.07306 -9.69489
LeftLeg  15.4539 7.11952 0.314249
LeftFoot  -10.7966 0.0334362 6.68536
LeftToes  -8.26734e-010 9.74065e-011 1.64617e-011
61
root  68.3614 38.4054 -3.41361 -129.824 -84.3093 125.238
RightUpLeg  -19.3399 10.5932 -8.26443
RightLeg  42.0955 3.47582 3.079
RightFoot  -3.20706 -0.545532 7.36163
RightToes  9.54606e-009 0 -3.6325e-017
Spine  5.52547 0.781486 -6.68842
Spine1  7.76629 0.628938 -2.08182
HEad  -8.39013 0.25496 -0.158828
LeftShoulder1  -0.393213 4.50342 -33.1325
LeftArm  10.1005 -1.92637 -44.7893
LeftForeArm  24.9744 -18.8204 -5.54284
LeftHand  -0.132515 9.09123 -2.50319
RightShoulder  -0.898442 -6.01514 29.1442
RightArm  23.4089 -0.469838 46.9254
RightForeArm  8.7385 19.5678 4.91056
RightHand  -0.0972296 1.78145 -1.74104
LeftUpLeg  -0.48591 4.41526 -9.20178
LeftLeg  14.8737 6.14625 0.172205
LeftFoot  -11.7989 0.0977589 6.7657
LeftToes  -8.26734e-010 9.74065e-011 1.64617e-011
62
root  67.5074 38.5027 -3.31312 -126.071 -85.4088 121.602
RightUpLeg  -19.4151 10.0507 -7.61058
RightLeg  31.9416 4.24564 2.63906
RightFoot  -2.64843 -0.561944 7.14392
RightToes  9.54606e-009 0 -3.6325e-017
Spine  6.18725 0.243358 -5.5165
Spine1  6.79092 0.240374 -2.0459
HEad  -9.27396 1.09291 0.458759
LeftShoulder1  -0.360043 4.43559 -32.4353
LeftArm  13.4513 -1.98221 -45.3297
LeftForeArm  22.2196 -21.9442 -4.20204
LeftHand  -0.120189 8.13336 -2.86179
RightShoulder  -1.02734 -6.30061 30.1709
RightArm  24.1273 -0.835978 45.9302
RightForeArm  8.7229 19.7583 4.88331
RightHand  -0.033037 1.81338 -0.719029
LeftUpLeg  1.60638 4.66796 -8.52973
LeftLeg  13.4241 5.10285 -0.118948
LeftFoot  -12.4543 0.13934 6.59306
LeftToes  -8.26734e-010 9.74065e-011 1.64617e-011
63
root  66.6253 38.5002 -3.24655 -123.411 -85.6968 119.291
RightUpLeg  -19.5423 9.00281 -7.21987
RightLeg  21.7131 5.17392 2.06617
RightFoot  -2.62 -0.591412 7.51668
RightToes  9.54606e-009 0 -3.6325e-017
Spine  4.84682 0.0991314 -5.78647
Spine1  8.5368 -0.0963152 -0.595202
HEad  -9.98598 0.510589 -0.0682859
LeftShoulder1  -0.435706 4.60885 -33.1148
LeftArm  14.2688 -3.3409 -45.4508
LeftForeArm  21.4363 -24.1761 -3.97076
LeftHand  -0.0631683 7.19113 -1.46338
RightShoulder  -0.90804 -6.05179 29.071
RightArm  23.4215 -1.062 46.8572
RightForeArm  8.66407 19.3672 4.96812
RightHand  -0.0670084 0.716607 -1.34366
LeftUpLeg  3.17621 4.81464 -8.4364
LeftLeg  12.5274 4.57433 -0.265577
LeftFoot  -13.2538 0.192467 6.74817
LeftToes  -8.26734e-010 9.74065e-011 1.64617e-011
64
root  65.6866 38.4469 -3.17092 -125.786 -85.3434 122.156
RightUpLeg  -19.5438 4.68966 -5.79458
RightLeg  11.538 8.87863 1.24778
RightFoot  -2.19598 -0.608678 7.39991
RightToes  9.54606e-009 0 -3.6325e-017
Spine  1.21614 0.367009 -4.91663
Spine1  13.1906 0.58352 -1.13239
HEad  -12.1607 -0.685581 0.198497
LeftShoulder1  -0.157496 3.91847 -31.9914
LeftArm  13.1034 -5.24191 -47.2523
LeftForeArm  22.8943 -25.3083 -4.20977
LeftHand  -0.0779863 7.95253 -1.52973
RightShoulder  -0.892813 -6.00957 29.0076
RightArm  21.9412 -0.569598 47.5229
RightForeArm  9.49994 18.3791 5.17284
RightHand  -0.058485 1.08678 -1.15372
LeftUpLeg  4.69944 4.92832 -8.6945
LeftLeg  11.5756 4.8276 -0.43063
LeftFoot  -14.1736 0.250901 6.69012
LeftToes  -8.26734e-010 9.74065e-011 1.64617e-011
65
root  64.688 38.3735 -3.10863 -125.157 -85.168 121.859
RightUpLeg  -18.9075 -3.80051 -2.60484
RightLeg  2.20244 14.4161 -0.407865
RightFoot  -2.30908 -0.756875 9.39159
RightToes  9.54606e-009 0 -3.6325e-017
Spine  0.932132 0.0701929 -4.64102
Spine1  13.049 0.263072 -0.873161
HEad  -12.2794 -0.86991 -0.307845
LeftShoulder1  -0.329925 4.35902 -32.457
LeftArm  12.7752 -4.91421 -46.4559
LeftForeArm  23.0922 -27.1675 -4.60329
LeftHand  -0.0592122 8.72404 -0.351913
RightShoulder  -0.714428 -5.52358 28.6606
RightArm  21.5814 -1.34071 48.0107
RightForeArm  11.0351 16.9728 5.61348
RightHand  -0.0340858 1.44849 -0.73647
LeftUpLeg  6.6809 5.0677 -8.87843
LeftLeg  10.2485 4.76443 -0.651447
LeftFoot  -15.1027 0.303799 6.49179
LeftToes  -8.26734e-010 9.74065e-011 1.64617e-011
66
root  63.6466 38.2145 -3.06678 -120.891 -85.0449 117.855
RightUpLeg  -19.1001 -4.68039 -2.39651
RightLeg  -2.62663 10.2903 -0.132993
RightFoot  -3.19279 -0.740109 10.0342
RightToes  9.54606e-009 0 -3.6325e-017
Spine  2.77932 0.305254 -4.19277
Spine1  9.9743 0.479928 -0.873998
HEad  -11.7993 -1.27996 -0.514983
LeftShoulder1  -0.367611 4.44996 -32.7188
LeftArm  13.9659 -3.92169 -45.7939
LeftForeArm  23.0276 -28.0508 -4.80452
LeftHand  -0.0631973 8.30623 -0.708221
RightShoulder  -0.925362 -6.03036 30.0636
RightArm  22.566 -2.96856 46.0608
RightForeArm  11.4515 16.3863 5.94376
RightHand  -0.0114146 2.04832 -0.406175
LeftUpLeg  8.19822 5.07329 -9.1913
LeftLeg  10.142 4.49593 -0.715963
LeftFoot  -16.4602 0.381161 6.28569
LeftToes  -8.26734e-010 9.74065e-011 1.64617e-011
